# xmcd
#
# Track frame offsets:
# 150
# 12517
# 29510
# 46105
# 62822
# 73767
# 88375
# 98340
# 118967
# 132435
#
# Disc length: 1978 seconds
#
#
# Revision: 4
# Processed by: cddbd v1.5.1PL0 Copyright (c) Steve Scherf et al.
# Submitted via: FreeRIP 2.94 
#
DISCID=8d07b80a
DTITLE=Acappella - En Español
DYEAR=1989
DGENRE=Acapella
TTITLE0=Es Muy Bueno Estar Reunidos
TTITLE1=Jamás Hables Mal
TTITLE2=Dulce Amistad
TTITLE3=Mejor Que La Vida
TTITLE4=Todo Mundo Dijo
TTITLE5=LaCanción
TTITLE6=A Aquel Que en el Trono Está
TTITLE7=Viniste a Salvarme
TTITLE8=Mi Señor y Mi Dios
TTITLE9=Camino con El
EXTD=In Spanish YEAR: 1989
EXTT0=
EXTT1=
EXTT2=
EXTT3=
EXTT4=
EXTT5=
EXTT6=
EXTT7=
EXTT8=
EXTT9=
PLAYORDER=
